# xmcd
#
# Track frame offsets: 
#        182
#        13930
#        35642
#        49037
#        61190
#        76702
#        89305
#        115732
#        132847
#        155810
#        171012
#        195270
#        210127
#        230070
#        260795
#
# Disc length: 4154 seconds
#
# Revision: 2
# Processed by: cddbd v1.5.2PL0 Copyright (c) Steve Scherf et al.
# Submitted via: ExactAudioCopy v0.99pb4
#
DISCID=c010380f
DTITLE=The Duke Robillard Band - Duke's Blues
DYEAR=1994
DGENRE=Blues
TTITLE0=Midnight Cannon Ball
TTITLE1=Glamour Girl
TTITLE2=I Still Love You Baby
TTITLE3=Texas Hop
TTITLE4=Don't Leave Me Baby
TTITLE5=Tell Me Why
TTITLE6=Something To Remember You By
TTITLE7=Love Slipped In
TTITLE8=Information Blues
TTITLE9=Don't Treat Me Like That
TTITLE10=Never Let You Go
TTITLE11=Gee I Wish
TTITLE12=My Heart Is Cryin'
TTITLE13=Red's Riff
TTITLE14=Dyin' Flu
EXTD=
EXTT0=
EXTT1=
EXTT2=
EXTT3=
EXTT4=
EXTT5=
EXTT6=
EXTT7=
EXTT8=
EXTT9=
EXTT10=
EXTT11=
EXTT12=
EXTT13=
EXTT14=
PLAYORDER=
